<svg width="25" height="25" viewBox="0 0 25 25" fill="none" xmlns="http://www.w3.org/2000/svg">
<path d="M12.5 6.82812C11.3782 6.82812 10.2816 7.16077 9.34888 7.78401C8.41614 8.40724 7.68916 9.29307 7.25987 10.3295C6.83058 11.3659 6.71826 12.5063 6.93711 13.6065C7.15596 14.7068 7.69615 15.7174 8.48938 16.5106C9.2826 17.3038 10.2932 17.844 11.3935 18.0629C12.4937 18.2817 13.6341 18.1694 14.6705 17.7401C15.7069 17.3108 16.5928 16.5839 17.216 15.6511C17.8392 14.7184 18.1719 13.6218 18.1719 12.5C18.1719 10.9957 17.5743 9.55306 16.5106 8.48938C15.4469 7.4257 14.0043 6.82812 12.5 6.82812ZM12.5 17.1406C11.5822 17.1406 10.685 16.8685 9.92181 16.3585C9.15866 15.8486 8.56386 15.1239 8.21262 14.2759C7.86138 13.4279 7.76948 12.4949 7.94854 11.5947C8.1276 10.6945 8.56958 9.86759 9.21858 9.21858C9.86759 8.56958 10.6945 8.1276 11.5947 7.94854C12.4949 7.76948 13.4279 7.86138 14.2759 8.21262C15.1239 8.56386 15.8486 9.15866 16.3585 9.92181C16.8685 10.685 17.1406 11.5822 17.1406 12.5C17.1406 13.7308 16.6517 14.9111 15.7814 15.7814C14.9111 16.6517 13.7308 17.1406 12.5 17.1406ZM18.1719 0.125H6.82812C5.05035 0.125 3.34538 0.83122 2.0883 2.0883C0.83122 3.34538 0.125 5.05035 0.125 6.82812V18.1719C0.125 19.0521 0.298381 19.9238 0.635245 20.737C0.972108 21.5503 1.46586 22.2893 2.0883 22.9117C3.34538 24.1688 5.05035 24.875 6.82812 24.875H18.1719C19.0521 24.875 19.9238 24.7016 20.737 24.3648C21.5503 24.0279 22.2893 23.5341 22.9117 22.9117C23.5341 22.2893 24.0279 21.5503 24.3648 20.737C24.7016 19.9238 24.875 19.0521 24.875 18.1719V6.82812C24.875 5.94786 24.7016 5.07621 24.3648 4.26295C24.0279 3.44969 23.5341 2.71074 22.9117 2.0883C22.2893 1.46586 21.5503 0.972108 20.737 0.635245C19.9238 0.298381 19.0521 0.125 18.1719 0.125ZM23.8438 18.1719C23.8438 19.6761 23.2462 21.1188 22.1825 22.1825C21.1188 23.2462 19.6761 23.8438 18.1719 23.8438H6.82812C5.32385 23.8438 3.88119 23.2462 2.8175 22.1825C1.75382 21.1188 1.15625 19.6761 1.15625 18.1719V6.82812C1.15625 5.32385 1.75382 3.88119 2.8175 2.8175C3.88119 1.75382 5.32385 1.15625 6.82812 1.15625H18.1719C19.6761 1.15625 21.1188 1.75382 22.1825 2.8175C23.2462 3.88119 23.8438 5.32385 23.8438 6.82812V18.1719ZM20.2344 5.79688C20.2344 6.00084 20.1739 6.20022 20.0606 6.36981C19.9473 6.5394 19.7862 6.67157 19.5978 6.74963C19.4093 6.82768 19.202 6.8481 19.0019 6.80831C18.8019 6.76852 18.6181 6.6703 18.4739 6.52608C18.3297 6.38186 18.2315 6.1981 18.1917 5.99806C18.1519 5.79802 18.1723 5.59067 18.2504 5.40223C18.3284 5.2138 18.4606 5.05274 18.6302 4.93942C18.7998 4.82611 18.9992 4.76562 19.2031 4.76562C19.4766 4.76562 19.7389 4.87427 19.9323 5.06767C20.1257 5.26107 20.2344 5.52337 20.2344 5.79688Z" fill="white"/>
</svg>
