<svg width="26" height="26" viewBox="0 0 26 26" fill="none" xmlns="http://www.w3.org/2000/svg">
<path d="M6.37501 9.25009H1.37501C1.20925 9.25009 1.05028 9.31594 0.933072 9.43315C0.815862 9.55036 0.750014 9.70933 0.750014 9.87509V24.8751C0.750014 25.0408 0.815862 25.1998 0.933072 25.317C1.05028 25.4342 1.20925 25.5001 1.37501 25.5001H6.37501C6.54077 25.5001 6.69974 25.4342 6.81695 25.317C6.93417 25.1998 7.00001 25.0408 7.00001 24.8751V9.87509C7.00001 9.70933 6.93417 9.55036 6.81695 9.43315C6.69974 9.31594 6.54077 9.25009 6.37501 9.25009ZM5.75001 24.2501H2.00001V10.5001H5.75001V24.2501ZM19.5 9.25009C18.1438 9.25009 16.825 9.69759 15.75 10.5238V9.87509C15.75 9.70933 15.6842 9.55036 15.567 9.43315C15.4497 9.31594 15.2908 9.25009 15.125 9.25009H10.125C9.95925 9.25009 9.80028 9.31594 9.68307 9.43315C9.56586 9.55036 9.50001 9.70933 9.50001 9.87509V24.8751C9.50001 25.0408 9.56586 25.1998 9.68307 25.317C9.80028 25.4342 9.95925 25.5001 10.125 25.5001H15.125C15.2908 25.5001 15.4497 25.4342 15.567 25.317C15.6842 25.1998 15.75 25.0408 15.75 24.8751V18.0001C15.75 17.5028 15.9476 17.0259 16.2992 16.6743C16.6508 16.3226 17.1277 16.1251 17.625 16.1251C18.1223 16.1251 18.5992 16.3226 18.9508 16.6743C19.3025 17.0259 19.5 17.5028 19.5 18.0001V24.8751C19.5 25.0408 19.5659 25.1998 19.6831 25.317C19.8003 25.4342 19.9593 25.5001 20.125 25.5001H25.125C25.2908 25.5001 25.4497 25.4342 25.567 25.317C25.6842 25.1998 25.75 25.0408 25.75 24.8751V15.5001C25.748 13.8431 25.0889 12.2545 23.9172 11.0829C22.7456 9.91119 21.157 9.25207 19.5 9.25009V9.25009ZM24.5 24.2501H20.75V18.0001C20.75 17.1713 20.4208 16.3764 19.8347 15.7904C19.2487 15.2043 18.4538 14.8751 17.625 14.8751C16.7962 14.8751 16.0014 15.2043 15.4153 15.7904C14.8293 16.3764 14.5 17.1713 14.5 18.0001V24.2501H10.75V10.5001H14.5V12.0038C14.5 12.1333 14.5402 12.2595 14.615 12.3652C14.6898 12.4708 14.7955 12.5506 14.9177 12.5936C15.0398 12.6365 15.1722 12.6405 15.2967 12.6049C15.4212 12.5694 15.5315 12.4961 15.6125 12.3951C16.2544 11.5814 17.1342 10.9884 18.1293 10.6986C19.1243 10.4088 20.185 10.4368 21.1634 10.7786C22.1418 11.1205 22.9891 11.7591 23.5872 12.6054C24.1854 13.4518 24.5044 14.4637 24.5 15.5001V24.2501ZM4.33501 0.502589C4.18814 0.492237 4.04075 0.491402 3.89376 0.500089C3.42597 0.468259 2.95663 0.532817 2.51481 0.689763C2.07298 0.846709 1.66809 1.0927 1.3252 1.4125C0.982319 1.7323 0.708749 2.11909 0.521438 2.54892C0.334126 2.97875 0.237064 3.44247 0.236264 3.91134C0.232382 4.37531 0.323856 4.83513 0.505016 5.2623C0.686175 5.68946 0.953157 6.07485 1.2894 6.39457C1.62565 6.71429 2.024 6.96153 2.45974 7.12095C2.89548 7.28037 3.35933 7.34858 3.82251 7.32134H3.85751C4.30524 7.35269 4.75476 7.29555 5.1804 7.15318C5.60604 7.01081 5.99947 6.786 6.33823 6.49158C6.67699 6.19716 6.95445 5.8389 7.15475 5.43725C7.35505 5.0356 7.47429 4.59844 7.50564 4.15071C7.53699 3.70299 7.47985 3.25347 7.33748 2.82783C7.19511 2.40219 6.9703 2.00875 6.67588 1.66999C6.38146 1.33123 6.0232 1.05378 5.62155 0.853477C5.2199 0.653174 4.78274 0.533942 4.33501 0.502589V0.502589ZM4.29126 6.07509C4.14691 6.08821 4.00162 6.08696 3.85751 6.07134H3.82251C3.52167 6.09395 3.21942 6.05359 2.93506 5.95283C2.6507 5.85206 2.39047 5.69311 2.17099 5.48612C1.95151 5.27913 1.77761 5.02865 1.66038 4.75067C1.54315 4.47269 1.48517 4.17332 1.49014 3.87167C1.49512 3.57002 1.56293 3.27273 1.68926 2.99876C1.81559 2.7248 1.99766 2.48019 2.22385 2.28054C2.45003 2.0809 2.71536 1.93061 3.00289 1.83928C3.29042 1.74794 3.59383 1.71757 3.89376 1.75009C4.46729 1.69738 5.03827 1.87466 5.48109 2.24293C5.92391 2.61121 6.2023 3.14031 6.25501 3.71384C6.30772 4.28737 6.13044 4.85835 5.76217 5.30117C5.39389 5.74399 4.86479 6.02238 4.29126 6.07509V6.07509Z" fill="white"/>
</svg>
